# xmcd CD database file
#
# Track frame offsets:
#	150
#	13924
#	33406
#	60820
#	87600
#	114868
#	138990
#	151646
#	183795
#	193371
#	206988
#	233192
#	250430
#	269502
#	287860
#
# Disc length: 4092 seconds
#
# Revision: 0
# Processed by: cddbd v1.5.2PL0 Copyright (c) Steve Scherf et al.
# Submitted via: CDex 1.70beta2
#
DISCID=d70ffa0f
DTITLE=Various Artist - Jazz After Midnight
DYEAR=2009
DGENRE=Jazz
TTITLE0=Count Basie - Jumpin At The Woodside
TTITLE1=Hank Jones - Lullaby Of Birdland
TTITLE2=Lionel Hampton - Stompin At the Savoy
TTITLE3=Charly Mingus - Farwell Farewell
TTITLE4=Woody Herman - Body And Soul
TTITLE5=Carmen McRae - New York State Of Mind
TTITLE6=Bill Doggett - Midnight Sun
TTITLE7=Gerry Mulligan - Song For Johnny
TTITLE8=Coleman Hawkins - Midnight Blues
TTITLE9=Dizzy Gillespie - Soul Time
TTITLE10=Earl 'Fatha'Hines - St.Louis Blues
TTITLE11=Chet Baker - Nice Little Girls
TTITLE12=Woody Herman - Early Autumn
TTITLE13=Sonny Stitt - Old Folks
TTITLE14=Bill Doggett - I Wish You Love
EXTD=YEAR: 2009
EXTT0=
EXTT1=
EXTT2=
EXTT3=
EXTT4=
EXTT5=
EXTT6=
EXTT7=
EXTT8=
EXTT9=
EXTT10=
EXTT11=
EXTT12=
EXTT13=
EXTT14=
PLAYORDER=
